<svg width="544" height="144" viewBox="0 0 544 144" fill="none" xmlns="http://www.w3.org/2000/svg">
<path d="M0 17.1875L16.6016 0.488281H126.66V68.0195H88.6719V75.6328H126.66V143.066H16.6016L0 126.953V17.1875Z" fill="currentColor"/>
<path d="M223.484 0C239.598 0 261.426 0 277.539 0C277.539 42.4805 277.539 84.5703 277.539 126.855L260.84 142.969H150.293L133.691 126.855C133.691 84.5703 133.691 42.4805 133.691 0C149.414 0 171.73 0 187.453 0L202.492 15.1367C202.492 26.5625 202.492 38.2812 202.492 49.4141H208.348V15.1367L223.484 0Z" fill="currentColor"/>
<path d="M393.066 0L409.961 16.6992C409.961 39.9414 409.961 48.8281 409.961 71.875L393.066 88.5742L414.551 143.262L284.668 142.969C284.668 95.3125 284.668 47.6562 284.668 0C320.898 0 356.934 0 393.066 0Z" fill="currentColor"/>
<path d="M526.953 143.066H433.496L416.602 127.148V84.375L430.469 71.6797L416.602 60.1562V16.9922L433.496 0.0976562H526.953L543.848 16.9922V60.1562L529.98 71.6797L543.848 84.375V127.148L526.953 143.066Z" fill="currentColor"/>
</svg>
